<svg width="100" height="39" viewBox="0 0 100 39" fill="none" xmlns="http://www.w3.org/2000/svg">
<g clip-path="url(#clip0_883_657)">
<path d="M22.0028 35.9165C18.8299 37.3694 15.3737 38.0988 11.8842 38.0518C4.14913 38.0518 0.179688 33.6925 0.179688 26.6042C0.179688 18.3818 6.16044 9.76953 15.9334 9.76953C21.4268 9.76953 25.352 12.8529 25.3608 17.8945C25.3608 24.7701 18.6447 27.2865 7.80846 26.9941C7.85088 27.9838 8.15676 28.9443 8.6945 29.7762C9.74002 31.1496 11.5475 31.8496 13.869 31.8496C16.4914 31.8731 19.0839 31.2909 21.4446 30.1484L22.0028 35.9165ZM14.9588 15.6262C11.264 15.6262 9.11094 18.6831 8.57931 21.1905C14.7638 21.288 17.9004 20.402 17.9004 17.9211C17.9004 16.5654 16.7574 15.6262 14.9588 15.6262Z" fill="white"/>
<path d="M35.8434 10.3711L39.166 18.9745L45.2088 10.3711H52.5629L42.9494 23.4401L49.2491 37.4484H41.39L37.7927 28.2159C37.0395 29.4829 30.9259 37.4484 30.9259 37.4484H23.5098L33.46 23.4401L28.8703 10.3711H35.8434Z" fill="white"/>
<path d="M51.7832 37.4484L56.9311 10.3711H64.8965L59.7487 37.4484H51.7832Z" fill="white"/>
<path d="M61.4678 8.03126C63.6796 8.03126 65.4727 6.23821 65.4727 4.02637C65.4727 1.81453 63.6796 0.0214844 61.4678 0.0214844C59.2559 0.0214844 57.4629 1.81453 57.4629 4.02637C57.4629 6.23821 59.2559 8.03126 61.4678 8.03126Z" fill="white"/>
<path d="M80.872 2.80469L79.4633 10.3714H83.4681L82.2897 16.4497H78.276L76.5039 25.629C76.2514 26.7592 76.1002 27.9097 76.052 29.0668C76.052 30.387 76.3887 31.7249 78.1165 31.7249C85.4617 31.7249 99.2219 31.8047 100.046 31.8047L99.1598 38.0069H74.8913C70.0978 38.0069 67.803 35.5703 67.803 32.1857C67.8323 30.5095 68.0342 28.8409 68.4055 27.2061L70.4966 16.4497H67.041L68.184 10.3714H71.6661L72.7382 4.68309L80.872 2.80469Z" fill="white"/>
<path d="M99.9923 31.8127L90.2812 22.1016L85.6951 26.6877L95.4062 36.3988L99.9923 31.8127Z" fill="white"/>
</g>
<defs>
<clipPath id="clip0_883_657">
<rect width="99.8209" height="38.0287" fill="white" transform="translate(0.179688 0.0214844)"/>
</clipPath>
</defs>
</svg>
